<svg xmlns="http://www.w3.org/2000/svg" xmlns:xlink="http://www.w3.org/1999/xlink" viewBox="0 0 500 500"><defs><clipPath id="freepik--clip-path--inject-10"><path d="M384.3,248.75s-34.85,10.8-41.41,2.27l.89-43.51h5.29l6.22,30.65,28.56-5.23S387.51,244.27,384.3,248.75Z" style="fill:#fff;stroke:#263238;stroke-linecap:round;stroke-linejoin:round"></path></clipPath><clipPath id="freepik--clip-path-2--inject-10"><path d="M380.88,249.89,387,287.57c-.16,24.42,11.49,20.75,19.58,20.68,9.35-.08,23.54-9.35,16.58-23.78l2.68-52.23L409.55,231c-5.37-.42-27.37.27-29.12,3.08C375.89,241.37,380.88,249.89,380.88,249.89Z" style="fill:#fff;stroke:#263238;stroke-linecap:round;stroke-linejoin:round"></path></clipPath><clipPath id="freepik--clip-path-3--inject-10"><path d="M441.19,255.8a36.9,36.9,0,0,1-5.32-11.7,30.51,30.51,0,0,0-1.82-6.11,11,11,0,0,0-7.89-5.85,4.16,4.16,0,0,0-2.16.1c-1.45.55-2.09,2.22-2.38,3.74a20.26,20.26,0,0,0,.54,9.81c.67,2.16,8.72,17.82,14,23.89C435.7,266.62,439.22,256.39,441.19,255.8Z" style="fill:#fff;stroke:#263238;stroke-linecap:round;stroke-linejoin:round"></path></clipPath></defs><g id="freepik--background-simple--inject-10"><path d="M92.16,138c70.07-79.73,190.37-93,244-67.39a235.56,235.56,0,0,1,57.21,38.23q3.36,3,6.53,6.17a223.63,223.63,0,0,1,18.53,20.67A217.54,217.54,0,0,1,437,163.22a202.64,202.64,0,0,1,18.53,43.47,153.78,153.78,0,0,1,5.78,30.51c1.53,19.41.2,39-2.41,58.25q-.36,2.76-.78,5.52c-.07.51-.14,1-.22,1.53-2.87,19.17-6.93,38.51-16,55.23C432,376,397.46,426.69,360,428c-19.43.69-36.59-12-54.2-21-28-14.28-59.69-17.08-90.59-17.91s-62.18.06-92.29-7.6S63.29,356.24,47.9,327c-5.23-9.94-9.2-24.26-9.21-35.72,0-33.81,5.52-63.38,15.16-89.07a209.81,209.81,0,0,1,10.69-23.93,203.54,203.54,0,0,1,20.92-32.17Z" style="fill:#FFC100"></path><g style="opacity:0.7000000000000001"><path d="M92.16,138c70.07-79.73,190.37-93,244-67.39a235.56,235.56,0,0,1,57.21,38.23q3.36,3,6.53,6.17a223.63,223.63,0,0,1,18.53,20.67A217.54,217.54,0,0,1,437,163.22a202.64,202.64,0,0,1,18.53,43.47,153.78,153.78,0,0,1,5.78,30.51c1.53,19.41.2,39-2.41,58.25q-.36,2.76-.78,5.52c-.07.51-.14,1-.22,1.53-2.87,19.17-6.93,38.51-16,55.23C432,376,397.46,426.69,360,428c-19.43.69-36.59-12-54.2-21-28-14.28-59.69-17.08-90.59-17.91s-62.18.06-92.29-7.6S63.29,356.24,47.9,327c-5.23-9.94-9.2-24.26-9.21-35.72,0-33.81,5.52-63.38,15.16-89.07a209.81,209.81,0,0,1,10.69-23.93,203.54,203.54,0,0,1,20.92-32.17Z" style="fill:#fff"></path></g></g><g id="freepik--Floor--inject-10"><line x1="38.69" y1="426.84" x2="468.74" y2="426.84" style="fill:none;stroke:#263238;stroke-linecap:round;stroke-linejoin:round"></line></g><g id="freepik--Plants--inject-10"><path d="M369.65,281.77a0,0,0,0,0,0,0l0,.11q0,.27.12.57a65,65,0,0,1,1,6.63c.19,1.91.34,4.09.38,6.52A98.68,98.68,0,0,1,370,312.38c-.22,1.46-.48,3-.79,4.54-.49,2.54-1.09,5.2-1.83,7.95-.33,1.28-.71,2.59-1.11,3.91l-.47,1.61c-.18.65-.36,1.3-.53,2v0a132.49,132.49,0,0,0-2.75,13.48c-.85,5.65-1.38,11.26-1.67,16.57-.39,7.08-.37,13.62-.2,19a2.44,2.44,0,0,0,0,.27c.18,5.47.52,9.76.75,12.2.13,1.43.22,2.24.23,2.29" style="fill:none;stroke:#263238;stroke-linecap:round;stroke-linejoin:round"></path><path d="M369.68,281.91l0,0,0,0a12.1,12.1,0,0,0-5.25-2.73" style="fill:#fff;stroke:#263238;stroke-linecap:round;stroke-linejoin:round"></path><line x1="370.8" y1="289.11" x2="373.46" y2="286.7" style="fill:none;stroke:#263238;stroke-linecap:round;stroke-linejoin:round"></line><path d="M367.41,324.88h0a11,11,0,0,0-.62-2.05,10.6,10.6,0,0,0-1.59-2.69,10.43,10.43,0,0,0-1.67-1.65" style="fill:none;stroke:#263238;stroke-linecap:round;stroke-linejoin:round"></path><path d="M365.28,332.38a7.36,7.36,0,0,1,4.17-4.11" style="fill:none;stroke:#263238;stroke-linecap:round;stroke-linejoin:round"></path><path d="M360.66,369.58c.89-1.08,1.56-5.17,1.92-7.37.09-.52.16-1,.23-1.29" style="fill:#fff;stroke:#263238;stroke-linecap:round;stroke-linejoin:round"></path><path d="M353.81,377a4.42,4.42,0,0,1,.89,0,7.25,7.25,0,0,1,6,4.45" style="fill:#fff;stroke:#263238;stroke-linecap:round;stroke-linejoin:round"></path><path d="M369.24,317s.47-16.23-8.44-22.12" style="fill:none;stroke:#263238;stroke-linecap:round;stroke-linejoin:round"></path><path d="M370,351.79c1.17,3.79-7,11-7,11s-10.79-1.35-12-5.13,1.56-10,6.8-11.6S368.87,348,370,351.79Z" style="fill:#FFC100"></path><path d="M379.09,305.86c-1,4-8.76,6.87-8.76,6.87S365,306.5,366,302.48s5.31-8.44,8.93-7.51S380.13,301.84,379.09,305.86Z" style="fill:#FFC100"></path><path d="M348.1,365.93c4.85,1.88,7.82,10.46,7.82,10.46s-8,4.31-12.84,2.42-10-7.21-8.6-10.76S343.25,364,348.1,365.93Z" style="fill:#FFC100"></path><path d="M358.73,318.73a10.43,10.43,0,0,0,3.32,1.88,3.49,3.49,0,0,0,3.53-.84c1-1.19.76-3,.11-4.49-1.3-2.85-6.08-7.7-9.75-6.31C350.64,311,356.37,317,358.73,318.73Z" style="fill:#FFC100"></path><path d="M369.58,326c-.7.86-1.44,1.95-1.05,3a2.23,2.23,0,0,0,2.44,1.2,6.56,6.56,0,0,0,2.62-1.29c1.87-1.3,5.71-4,3.26-6.57S371,324.19,369.58,326Z" style="fill:#FFC100"></path><path d="M353.93,289.73a1.93,1.93,0,0,0-1.75,1.42c-.16.93.61,1.74,1.35,2.31,1.86,1.44,7.45,5.3,8.69,1.57C363.4,291.51,356.39,289.46,353.93,289.73Z" style="fill:#FFC100"></path><path d="M364.22,277.47c-1.15.11-2.3-.31-3.46-.24s-2.43,1-2.18,2.14,1.54,1.39,2.6,1.45a20.77,20.77,0,0,0,5.45-.37,1.68,1.68,0,0,0,1.1-.56c.47-.69-.27-1.61-1.07-1.85a11.94,11.94,0,0,1-2.41-.58Z" style="fill:#FFC100"></path><path d="M375.48,285.4c1.15,0,2.27-.46,3.43-.47s2.5.84,2.31,2-1.43,1.49-2.49,1.62a20.79,20.79,0,0,1-5.46,0,1.66,1.66,0,0,1-1.14-.49c-.51-.65.17-1.62.94-1.92a10.88,10.88,0,0,0,2.37-.73Z" style="fill:#FFC100"></path><path d="M374.34,370.62a1.62,1.62,0,0,1,1-.49,1.11,1.11,0,0,1,1,1,3.17,3.17,0,0,1-.18,1.46c-.79,2.63-9.59,21.62-11.62,18.21-1.19-2,1.75-8.69,2.62-10.58A27.57,27.57,0,0,1,374.34,370.62Z" style="fill:#FFC100"></path><path d="M370.05,283s-.53-4.61.58-5" style="fill:none;stroke:#263238;stroke-linecap:round;stroke-linejoin:round"></path><path d="M369.07,278.19a10,10,0,0,1,2.84-4.22c1.39-1,3.62-1.08,4.63.31,1.13,1.55,0,3.9-1.73,4.73s-3.77.58-5.67.31c0-.28,0-.56,0-.84Z" style="fill:#FFC100"></path><path d="M373.81,426.61h0a85.62,85.62,0,0,1-28.48,0h0l-11.08-32.69h50.64Z" style="fill:#fff;stroke:#263238;stroke-linecap:round;stroke-linejoin:round"></path><path d="M180.55,190.43a0,0,0,0,0,0,0l0,.11q.06.27.12.57a61.83,61.83,0,0,1,1,6.63c.19,1.91.33,4.09.38,6.52A98.68,98.68,0,0,1,180.93,221c-.22,1.46-.48,3-.79,4.54-.49,2.54-1.1,5.2-1.83,7.95-.34,1.28-.71,2.59-1.11,3.91-.16.54-.32,1.07-.47,1.61s-.37,1.3-.54,2a0,0,0,0,1,0,0,133,133,0,0,0-2.75,13.48c-.85,5.65-1.37,11.26-1.66,16.57-.39,7.08-.38,13.62-.2,19v.27c.19,5.47.52,9.76.76,12.21.12,1.42.22,2.23.22,2.28" style="fill:none;stroke:#263238;stroke-linecap:round;stroke-linejoin:round"></path><path d="M180.57,190.57l0,0s0,0,0,0a12.91,12.91,0,0,0-2.34-1.63,12.54,12.54,0,0,0-2.92-1.1" style="fill:#fff;stroke:#263238;stroke-linecap:round;stroke-linejoin:round"></path><line x1="181.69" y1="197.77" x2="184.36" y2="195.36" style="fill:none;stroke:#263238;stroke-linecap:round;stroke-linejoin:round"></line><path d="M178.31,233.54h0a11,11,0,0,0-.63-2.05,10.6,10.6,0,0,0-1.59-2.69,10.43,10.43,0,0,0-1.67-1.65" style="fill:none;stroke:#263238;stroke-linecap:round;stroke-linejoin:round"></path><path d="M176.18,241a7.31,7.31,0,0,1,4.16-4.11" style="fill:none;stroke:#263238;stroke-linecap:round;stroke-linejoin:round"></path><path d="M171.55,278.24c.89-1.08,1.57-5.17,1.93-7.37.08-.52.16-1,.22-1.29" style="fill:#fff;stroke:#263238;stroke-linecap:round;stroke-linejoin:round"></path><path d="M164.7,285.62a4.52,4.52,0,0,1,.9,0,7.28,7.28,0,0,1,6,4.45" style="fill:#fff;stroke:#263238;stroke-linecap:round;stroke-linejoin:round"></path><path d="M180.13,225.62s.48-16.23-8.44-22.12" style="fill:none;stroke:#263238;stroke-linecap:round;stroke-linejoin:round"></path><path d="M180.94,260.45c1.16,3.79-7,11-7,11s-10.8-1.35-12-5.13,1.57-10,6.8-11.6S179.77,256.67,180.94,260.45Z" style="fill:#FFC100"></path><path d="M190,214.52c-1,4-8.76,6.87-8.76,6.87s-5.39-6.23-4.35-10.25,5.3-8.44,8.92-7.51S191,210.5,190,214.52Z" style="fill:#FFC100"></path><path d="M159,274.59c4.85,1.89,7.83,10.46,7.83,10.46s-8,4.31-12.85,2.42-10-7.21-8.59-10.76S154.14,272.7,159,274.59Z" style="fill:#FFC100"></path><path d="M169.63,227.39a10.39,10.39,0,0,0,3.31,1.88,3.49,3.49,0,0,0,3.53-.84c1-1.19.76-3,.11-4.49-1.3-2.85-6.07-7.7-9.75-6.31C161.54,219.64,167.26,225.64,169.63,227.39Z" style="fill:#FFC100"></path><path d="M180.47,234.67c-.69.86-1.43,2-1.05,3a2.23,2.23,0,0,0,2.44,1.2,6.5,6.5,0,0,0,2.62-1.29c1.87-1.29,5.71-4,3.26-6.57S181.94,232.85,180.47,234.67Z" style="fill:#FFC100"></path><path d="M164.82,198.39a1.94,1.94,0,0,0-1.75,1.42c-.16.93.61,1.74,1.36,2.31,1.86,1.44,7.44,5.3,8.69,1.57C174.29,200.17,167.29,198.12,164.82,198.39Z" style="fill:#FFC100"></path><path d="M175.11,186.13c-1.15.11-2.3-.31-3.45-.24s-2.44,1-2.18,2.14,1.53,1.39,2.6,1.45a20.7,20.7,0,0,0,5.44-.37,1.7,1.7,0,0,0,1.11-.56c.46-.69-.28-1.61-1.07-1.85a12,12,0,0,1-2.42-.58Z" style="fill:#FFC100"></path><path d="M186.37,194.06c1.16,0,2.28-.46,3.43-.47s2.5.84,2.32,2-1.44,1.49-2.5,1.62a20.79,20.79,0,0,1-5.46,0,1.66,1.66,0,0,1-1.14-.49c-.51-.65.17-1.62.95-1.92a11.23,11.23,0,0,0,2.37-.73Z" style="fill:#FFC100"></path><path d="M185.23,279.28a1.64,1.64,0,0,1,1-.49,1.14,1.14,0,0,1,1,1,3.18,3.18,0,0,1-.19,1.46c-.78,2.63-9.59,21.62-11.61,18.21-1.2-2,1.74-8.69,2.61-10.58A27.57,27.57,0,0,1,185.23,279.28Z" style="fill:#FFC100"></path><path d="M180.94,191.68s-.53-4.61.59-5" style="fill:none;stroke:#263238;stroke-linecap:round;stroke-linejoin:round"></path><path d="M180,186.85a9.82,9.82,0,0,1,2.84-4.22c1.39-1,3.61-1.08,4.62.31,1.13,1.55,0,3.9-1.73,4.73s-3.76.58-5.66.31c0-.28,0-.56,0-.84Z" style="fill:#FFC100"></path></g><g id="freepik--Building--inject-10"><line x1="53.85" y1="300.97" x2="53.85" y2="202.16" style="fill:none;stroke:#263238;stroke-linecap:round;stroke-linejoin:round"></line><line x1="362.35" y1="300.97" x2="350.14" y2="300.97" style="fill:none;stroke:#263238;stroke-linecap:round;stroke-linejoin:round"></line><line x1="458.1" y1="300.97" x2="433.23" y2="300.97" style="fill:none;stroke:#263238;stroke-linecap:round;stroke-linejoin:round"></line><polyline points="349.02 150.86 393.09 150.86 393.09 108.88" style="fill:none;stroke:#263238;stroke-linecap:round;stroke-linejoin:round"></polyline><polyline points="92.16 138.04 138.98 138.04 138.98 172.19 190.3 172.19" style="fill:none;stroke:#263238;stroke-linecap:round;stroke-linejoin:round"></polyline><line x1="64.54" y1="253.69" x2="64.54" y2="178.23" style="fill:none;stroke:#263238;stroke-linecap:round;stroke-linejoin:round"></line><line x1="85.46" y1="145.48" x2="85.46" y2="204.62" style="fill:none;stroke:#263238;stroke-linecap:round;stroke-linejoin:round"></line><line x1="106.37" y1="145.48" x2="106.37" y2="197.76" style="fill:none;stroke:#263238;stroke-linecap:round;stroke-linejoin:round"></line><line x1="127.28" y1="145.48" x2="127.28" y2="236.93" style="fill:none;stroke:#263238;stroke-linecap:round;stroke-linejoin:round"></line><polyline points="227.45 132.51 227.45 72.38 312.58 72.38 312.58 132.51" style="fill:none;stroke:#263238;stroke-linecap:round;stroke-linejoin:round"></polyline><polyline points="233.69 102.25 233.69 79.52 249.43 79.52" style="fill:none;stroke:#263238;stroke-linecap:round;stroke-linejoin:round"></polyline><polyline points="252.89 102.25 252.89 79.52 268.63 79.52" style="fill:none;stroke:#263238;stroke-linecap:round;stroke-linejoin:round"></polyline><polyline points="272.09 102.25 272.09 79.52 287.83 79.52" style="fill:none;stroke:#263238;stroke-linecap:round;stroke-linejoin:round"></polyline><polyline points="291.29 102.25 291.29 79.52 307.03 79.52" style="fill:none;stroke:#263238;stroke-linecap:round;stroke-linejoin:round"></polyline><polyline points="233.69 132.51 233.69 109.78 249.43 109.78" style="fill:none;stroke:#263238;stroke-linecap:round;stroke-linejoin:round"></polyline><polyline points="252.89 132.51 252.89 109.78 268.63 109.78" style="fill:none;stroke:#263238;stroke-linecap:round;stroke-linejoin:round"></polyline><polyline points="272.09 132.51 272.09 109.78 287.83 109.78" style="fill:none;stroke:#263238;stroke-linecap:round;stroke-linejoin:round"></polyline><polyline points="291.29 132.51 291.29 109.78 307.03 109.78" style="fill:none;stroke:#263238;stroke-linecap:round;stroke-linejoin:round"></polyline><line x1="399.91" y1="114.08" x2="399.91" y2="189.43" style="fill:none;stroke:#263238;stroke-linecap:round;stroke-linejoin:round"></line><line x1="430.82" y1="295.45" x2="433.23" y2="295.45" style="fill:none;stroke:#263238;stroke-linecap:round;stroke-linejoin:round"></line><line x1="418.44" y1="135.72" x2="418.44" y2="220.08" style="fill:none;stroke:#263238;stroke-linecap:round;stroke-linejoin:round"></line><polyline points="436.98 273.91 436.98 295.45 451.77 295.45" style="fill:none;stroke:#263238;stroke-linecap:round;stroke-linejoin:round"></polyline><line x1="436.98" y1="163.22" x2="436.98" y2="220.51" style="fill:none;stroke:#263238;stroke-linecap:round;stroke-linejoin:round"></line><polyline points="455.51 206.69 455.51 295.45 458.88 295.45" style="fill:none;stroke:#263238;stroke-linecap:round;stroke-linejoin:round"></polyline></g><g id="freepik--Mail--inject-10"><rect x="38.69" y="302.78" width="191" height="124.06" style="fill:#fff;stroke:#263238;stroke-linecap:round;stroke-linejoin:round"></rect><polygon points="38.69 302.78 134.19 364.81 229.69 302.78 38.69 302.78" style="fill:#fff;stroke:#263238;stroke-linecap:round;stroke-linejoin:round"></polygon><line x1="105.48" y1="346.16" x2="38.69" y2="426.84" style="fill:none;stroke:#263238;stroke-linecap:round;stroke-linejoin:round"></line><line x1="163.42" y1="346.16" x2="230.21" y2="426.84" style="fill:none;stroke:#263238;stroke-linecap:round;stroke-linejoin:round"></line></g></svg>